<svg id="Capa_3" data-name="Capa 3" xmlns="http://www.w3.org/2000/svg" viewBox="0 0 207.14 203.61"><defs><style>.cls-1,.cls-3{fill:#ff4a04;}.cls-2{fill:none;}.cls-2,.cls-3{stroke:#fff;stroke-miterlimit:10;stroke-width:6px;}</style></defs><title>gift-icon</title><path class="cls-1" d="M157.5,85.9a37.3,37.3,0,0,1-37.31,37.3c-20.6,0-28.51-18.07-33.41-37.3C82.71,70,99.59,48.59,120.19,48.59A37.3,37.3,0,0,1,157.5,85.9Z" transform="translate(-51.6 -48.2)"/><path class="cls-1" d="M219.27,89.41c-6.52,19.55-9.29,33.4-29.9,33.4a37.31,37.31,0,1,1,0-74.61C210,48.2,226.89,66.55,219.27,89.41Z" transform="translate(-51.6 -48.2)"/><rect class="cls-1" y="43.76" width="207.14" height="61.56" rx="19.29"/><rect class="cls-1" x="12.31" y="64.96" width="181.35" height="138.65" rx="18.79"/><path class="cls-2" d="M154,101.92c-.49,0-4.72-13.72-5.15-14.88-3.71-10-9.4-18.84-18.57-24.57-7.32-4.57-16.28-5.3-23,.71-11.71,10.54-8.58,26.86-.82,38.74Z" transform="translate(-51.6 -48.2)"/><path class="cls-2" d="M154,101.92c.49,0,4.72-13.72,5.15-14.88,3.71-10,9.39-18.84,18.57-24.57,7.32-4.57,16.28-5.3,22.95.71,11.71,10.54,8.58,26.86.82,38.74Z" transform="translate(-51.6 -48.2)"/><rect class="cls-2" x="23.84" y="86.36" width="158.29" height="102.59" rx="12"/><rect class="cls-3" x="10.94" y="53.72" width="184.08" height="42.8" rx="12"/><rect class="cls-3" x="83.64" y="53.72" width="35.18" height="135.23"/></svg>