<svg id="Capa_1" data-name="Capa 1" xmlns="http://www.w3.org/2000/svg" viewBox="0 0 300 300"><defs><style>.cls-1{fill:#52358c;}.cls-2{font-size:130px;fill:#fff;font-family:CenturyGothic-Bold, Century Gothic;font-weight:700;}</style></defs><title>Icono2-morado</title><path class="cls-1" d="M5.89,202a57.6,57.6,0,0,1,1.72-6,558.13,558.13,0,0,1,25.67-61.11C42,116.9,50.84,97.86,63.67,82A90,90,0,0,1,86.36,61.51c10.19-6.22,22.52-6.27,34.14-5.58,36.33,2.16,70.39,18.72,101.95,35.72,23.59,12.71,55.06,29.54,66.79,55.11a20.14,20.14,0,0,1,1.54,3.87s5.33,24.62-9.44,32.83c0,0-27.78,15.74-100.56,30.51L93.21,232.58C65.39,238.49-4.77,248.28,5.89,202Z"/><text class="cls-2" transform="translate(92.99 193.75)">2</text></svg>